<?xml version="1.0" standalone="no"?><!DOCTYPE svg PUBLIC "-//W3C//DTD SVG 1.1//EN" "http://www.w3.org/Graphics/SVG/1.1/DTD/svg11.dtd"><svg t="1483341820860" class="icon" style="" viewBox="0 0 1024 1024" version="1.1" xmlns="http://www.w3.org/2000/svg" p-id="2283" xmlns:xlink="http://www.w3.org/1999/xlink" width="200" height="200"><defs><style type="text/css"></style></defs><path d="M117.077485 554.584887c-16.417925 0-32.014134-7.099698-42.787502-19.48068-9.752108-11.206226-14.667048-25.545816-13.84124-40.378639 0.815575-14.642488 7.158027-28.222785 17.859763-38.238906l264.314875-261.550924C356.069625 181.629687 373.896642 174.302815 392.820644 174.302815c15.987113 0 31.701003 5.464455 44.246737 15.386432l192.500269 152.24238 159.00234-182.137247-90.093924-95.321996 259.016195-0.032746-0.086981 261.20914-86.644359-86.71906L679.041434 451.414133c-13.051247 14.464433-31.715329 22.760376-51.208289 22.760376-15.884782 0-31.403221-5.550413-43.696198-15.629979L390.756635 299.994492 156.118664 538.998911l-0.339738 0.314155C145.238872 549.161365 131.494846 554.584887 117.077485 554.584887z" p-id="2284" fill="#d81e06"></path><path d="M80.774675 612.597139l107.448174 0 0 351.736946-107.448174 0 0-351.736946Z" p-id="2285" fill="#d81e06"></path><path d="M323.511091 439.054641l107.448174 0 0 525.278421-107.448174 0 0-525.278421Z" p-id="2286" fill="#d81e06"></path><path d="M586.711586 556.678572l107.453291 0 0 407.65449-107.453291 0 0-407.65449Z" p-id="2287" fill="#d81e06"></path><path d="M849.914126 375.422392l107.453291 0 0 588.911694-107.453291 0 0-588.911694Z" p-id="2288" fill="#d81e06"></path></svg>